solid OpenSCAD_Model
  facet normal 0 0 1
    outer loop
      vertex -6.965 17.0766 16.35
      vertex 0.5 0.5 16.35
      vertex 5.05581 5.05581 16.35
    endloop
  endfacet
  facet normal 0 0 1
    outer loop
      vertex -6.965 17.0766 16.35
      vertex -10.6116 0.5 16.35
      vertex 0.5 0.5 16.35
    endloop
  endfacet
  facet normal 0 -0 1
    outer loop
      vertex -10.6116 0.5 16.35
      vertex -6.965 17.0766 16.35
      vertex -17.0766 6.965 16.35
    endloop
  endfacet
  facet normal 0.707104 0.707109 0
    outer loop
      vertex -6.965 17.0766 16.35
      vertex -5.55079 15.6624 13.2
      vertex -6.965 17.0766 13.2
    endloop
  endfacet
  facet normal 0.707106 0.707107 0
    outer loop
      vertex -5.55079 15.6624 13.2
      vertex 5.05581 5.05581 16.35
      vertex -5.55079 15.6624 3.2
    endloop
  endfacet
  facet normal 0.707106 0.707107 1.7166e-06
    outer loop
      vertex 5.05581 5.05581 16.35
      vertex -5.55079 15.6624 13.2
      vertex -6.965 17.0766 16.35
    endloop
  endfacet
  facet normal 0.707104 0.707109 0
    outer loop
      vertex -5.55079 15.6624 3.2
      vertex -6.965 17.0766 0.0500004
      vertex -6.965 17.0766 3.2
    endloop
  endfacet
  facet normal 0.707106 0.707107 -0
    outer loop
      vertex 5.05581 5.05581 0.0500004
      vertex -5.55079 15.6624 3.2
      vertex 5.05581 5.05581 16.35
    endloop
  endfacet
  facet normal 0.707106 0.707107 -1.7166e-06
    outer loop
      vertex -5.55079 15.6624 3.2
      vertex 5.05581 5.05581 0.0500004
      vertex -6.965 17.0766 0.0500004
    endloop
  endfacet
  facet normal 0 0 0
    outer loop
      vertex -6.965 17.0766 16.35
      vertex -6.965 17.0766 13.2
      vertex -6.965 17.0766 3.2
    endloop
  endfacet
  facet normal 0 -0 0
    outer loop
      vertex -6.965 17.0766 3.2
      vertex -6.965 17.0766 0.0500004
      vertex -6.965 17.0766 16.35
    endloop
  endfacet
  facet normal 0 0 -1
    outer loop
      vertex 0.5 0.5 0.0500004
      vertex -6.965 17.0766 0.0500004
      vertex 5.05581 5.05581 0.0500004
    endloop
  endfacet
  facet normal 0 0 -1
    outer loop
      vertex -10.6116 0.5 0.0500004
      vertex -6.965 17.0766 0.0500004
      vertex 0.5 0.5 0.0500004
    endloop
  endfacet
  facet normal 0 0 -1
    outer loop
      vertex -6.965 17.0766 0.0500004
      vertex -10.6116 0.5 0.0500004
      vertex -17.0766 6.965 0.0500004
    endloop
  endfacet
  facet normal -0.707107 0.707107 0
    outer loop
      vertex -17.0766 6.965 0.0500004
      vertex -6.965 17.0766 3.2
      vertex -6.965 17.0766 0.0500004
    endloop
  endfacet
  facet normal -0.707107 0.707107 0
    outer loop
      vertex -6.965 17.0766 3.2
      vertex -17.0766 6.965 0.0500004
      vertex -17.0766 6.965 3.2
    endloop
  endfacet
  facet normal -0.707107 0.707107 0
    outer loop
      vertex -17.0766 6.965 13.2
      vertex -6.965 17.0766 16.35
      vertex -6.965 17.0766 13.2
    endloop
  endfacet
  facet normal -0.707107 0.707107 0
    outer loop
      vertex -6.965 17.0766 16.35
      vertex -17.0766 6.965 13.2
      vertex -17.0766 6.965 16.35
    endloop
  endfacet
  facet normal -0 0 0
    outer loop
      vertex -6.965 17.0766 13.2
      vertex -6.965 17.0766 16.35
      vertex -6.965 17.0766 0.0500004
    endloop
  endfacet
  facet normal 0 0 0
    outer loop
      vertex -6.965 17.0766 0.0500004
      vertex -6.965 17.0766 3.2
      vertex -6.965 17.0766 13.2
    endloop
  endfacet
  facet normal -0.707109 -0.707104 0
    outer loop
      vertex -17.0766 6.965 0.0500004
      vertex -15.6624 5.55079 3.2
      vertex -17.0766 6.965 3.2
    endloop
  endfacet
  facet normal -0.707106 -0.707107 0
    outer loop
      vertex -15.6624 5.55079 3.2
      vertex -10.6116 0.5 0.0500004
      vertex -15.6624 5.55079 13.2
    endloop
  endfacet
  facet normal -0.707107 -0.707107 -2.24478e-06
    outer loop
      vertex -10.6116 0.5 0.0500004
      vertex -15.6624 5.55079 3.2
      vertex -17.0766 6.965 0.0500004
    endloop
  endfacet
  facet normal -0.707109 -0.707104 0
    outer loop
      vertex -15.6624 5.55079 13.2
      vertex -17.0766 6.965 16.35
      vertex -17.0766 6.965 13.2
    endloop
  endfacet
  facet normal -0.707107 -0.707107 2.24478e-06
    outer loop
      vertex -15.6624 5.55079 13.2
      vertex -10.6116 0.5 16.35
      vertex -17.0766 6.965 16.35
    endloop
  endfacet
  facet normal -0.707106 -0.707107 -0
    outer loop
      vertex -10.6116 0.5 16.35
      vertex -15.6624 5.55079 13.2
      vertex -10.6116 0.5 0.0500004
    endloop
  endfacet
  facet normal 0.707107 -0.707107 0
    outer loop
      vertex 5.05581 5.05581 16.35
      vertex 2.22739 2.22739 12.35
      vertex 5.05581 5.05581 0.0500004
    endloop
  endfacet
  facet normal 0.707107 -0.707107 0
    outer loop
      vertex 0.5 0.5 16.35
      vertex 2.22739 2.22739 12.35
      vertex 5.05581 5.05581 16.35
    endloop
  endfacet
  facet normal 0.707107 -0.707107 0
    outer loop
      vertex 2.22739 2.22739 12.35
      vertex 0.5 0.5 16.35
      vertex 0.5 0.5 12.35
    endloop
  endfacet
  facet normal 0.707107 -0.707107 0
    outer loop
      vertex 2.22739 2.22739 4.05
      vertex 5.05581 5.05581 0.0500004
      vertex 2.22739 2.22739 12.35
    endloop
  endfacet
  facet normal 0.707107 -0.707107 0
    outer loop
      vertex 0.5 0.5 0.0500004
      vertex 2.22739 2.22739 4.05
      vertex 0.5 0.5 4.05
    endloop
  endfacet
  facet normal 0.707107 -0.707107 0
    outer loop
      vertex 2.22739 2.22739 4.05
      vertex 0.5 0.5 0.0500004
      vertex 5.05581 5.05581 0.0500004
    endloop
  endfacet
  facet normal 0 0 -1
    outer loop
      vertex -4.95477 0.5 12.35
      vertex 2.22739 2.22739 12.35
      vertex 0.5 0.5 12.35
    endloop
  endfacet
  facet normal 0 0 -1
    outer loop
      vertex -4.95477 0.5 12.35
      vertex -8.37922 12.834 12.35
      vertex 2.22739 2.22739 12.35
    endloop
  endfacet
  facet normal 0 -0 -1
    outer loop
      vertex -8.37922 12.834 12.35
      vertex -4.95477 0.5 12.35
      vertex -12.834 8.37922 12.35
    endloop
  endfacet
  facet normal -0.707107 -0.707107 0
    outer loop
      vertex 2.22739 2.22739 4.05
      vertex -8.37922 12.834 12.35
      vertex -8.37922 12.834 4.05
    endloop
  endfacet
  facet normal -0.707107 -0.707107 0
    outer loop
      vertex -8.37922 12.834 12.35
      vertex 2.22739 2.22739 4.05
      vertex 2.22739 2.22739 12.35
    endloop
  endfacet
  facet normal 0 0 1
    outer loop
      vertex 2.22739 2.22739 4.05
      vertex -4.95477 0.5 4.05
      vertex 0.5 0.5 4.05
    endloop
  endfacet
  facet normal 0 0 1
    outer loop
      vertex -8.37922 12.834 4.05
      vertex -4.95477 0.5 4.05
      vertex 2.22739 2.22739 4.05
    endloop
  endfacet
  facet normal 0 0 1
    outer loop
      vertex -4.95477 0.5 4.05
      vertex -8.37922 12.834 4.05
      vertex -12.834 8.37922 4.05
    endloop
  endfacet
  facet normal 0.707106 0.707107 0
    outer loop
      vertex -4.95477 0.5 12.35
      vertex -12.834 8.37922 4.05
      vertex -12.834 8.37922 12.35
    endloop
  endfacet
  facet normal 0.707106 0.707107 0
    outer loop
      vertex -12.834 8.37922 4.05
      vertex -4.95477 0.5 12.35
      vertex -4.95477 0.5 4.05
    endloop
  endfacet
  facet normal 0 -1 0
    outer loop
      vertex -10.6116 0.5 16.35
      vertex -4.95477 0.5 12.35
      vertex 0.5 0.5 16.35
    endloop
  endfacet
  facet normal 0 -1 0
    outer loop
      vertex -10.6116 0.5 16.35
      vertex -4.95477 0.5 4.05
      vertex -4.95477 0.5 12.35
    endloop
  endfacet
  facet normal 0 -1 0
    outer loop
      vertex -10.6116 0.5 0.0500004
      vertex -4.95477 0.5 4.05
      vertex -10.6116 0.5 16.35
    endloop
  endfacet
  facet normal 0 -1 0
    outer loop
      vertex 0.5 0.5 0.0500004
      vertex -4.95477 0.5 4.05
      vertex -10.6116 0.5 0.0500004
    endloop
  endfacet
  facet normal 0 -1 0
    outer loop
      vertex -4.95477 0.5 4.05
      vertex 0.5 0.5 0.0500004
      vertex 0.5 0.5 4.05
    endloop
  endfacet
  facet normal 0 -1 -0
    outer loop
      vertex 0.5 0.5 16.35
      vertex -4.95477 0.5 12.35
      vertex 0.5 0.5 12.35
    endloop
  endfacet
  facet normal 0 -1 0
    outer loop
      vertex -39 1 3.2
      vertex -38 1 13.2
      vertex -39 1 13.2
    endloop
  endfacet
  facet normal 0 -1 -0
    outer loop
      vertex -38 1 13.2
      vertex -39 1 3.2
      vertex -38 1 3.2
    endloop
  endfacet
  facet normal -0.244468 0.969657 0
    outer loop
      vertex -6.965 17.0766 3.2
      vertex -38.4815 9.13072 13.2
      vertex -6.965 17.0766 13.2
    endloop
  endfacet
  facet normal -0.244468 0.969657 0
    outer loop
      vertex -38.4815 9.13072 13.2
      vertex -6.965 17.0766 3.2
      vertex -38.4815 9.13072 3.2
    endloop
  endfacet
  facet normal 0.707104 0.707109 0
    outer loop
      vertex -5.55079 15.6624 13.2
      vertex -6.965 17.0766 3.2
      vertex -6.965 17.0766 13.2
    endloop
  endfacet
  facet normal 0.707104 0.707109 0
    outer loop
      vertex -6.965 17.0766 3.2
      vertex -5.55079 15.6624 13.2
      vertex -5.55079 15.6624 3.2
    endloop
  endfacet
  facet normal -0 0 -1
    outer loop
      vertex -15.6624 5.55079 3.2
      vertex -38 1 3.2
      vertex -17.0766 6.965 3.2
    endloop
  endfacet
  facet normal 0 0 -1
    outer loop
      vertex -38 9 3.2
      vertex -17.0766 6.965 3.2
      vertex -38 1 3.2
    endloop
  endfacet
  facet normal 0 0 -1
    outer loop
      vertex -17.0766 6.965 3.2
      vertex -38 9 3.2
      vertex -6.965 17.0766 3.2
    endloop
  endfacet
  facet normal 0 0 -1
    outer loop
      vertex -6.965 17.0766 3.2
      vertex -38 9 3.2
      vertex -38.4815 9.13072 3.2
    endloop
  endfacet
  facet normal 0 0 1
    outer loop
      vertex -6.965 17.0766 13.2
      vertex -38 9 13.2
      vertex -17.0766 6.965 13.2
    endloop
  endfacet
  facet normal 0 -0 1
    outer loop
      vertex -38 9 13.2
      vertex -6.965 17.0766 13.2
      vertex -38.4815 9.13072 13.2
    endloop
  endfacet
  facet normal 0 0 1
    outer loop
      vertex -38 1 13.2
      vertex -17.0766 6.965 13.2
      vertex -38 9 13.2
    endloop
  endfacet
  facet normal 0 0 1
    outer loop
      vertex -17.0766 6.965 13.2
      vertex -38 1 13.2
      vertex -15.6624 5.55079 13.2
    endloop
  endfacet
  facet normal 0.199627 -0.979872 0
    outer loop
      vertex -38 1 3.2
      vertex -15.6624 5.55079 13.2
      vertex -38 1 13.2
    endloop
  endfacet
  facet normal 0.199627 -0.979872 0
    outer loop
      vertex -15.6624 5.55079 13.2
      vertex -38 1 3.2
      vertex -15.6624 5.55079 3.2
    endloop
  endfacet
  facet normal 0.707107 -0.707107 0
    outer loop
      vertex -12.834 8.37922 12.35
      vertex -8.37922 12.834 4.05
      vertex -8.37922 12.834 12.35
    endloop
  endfacet
  facet normal 0.707107 -0.707107 0
    outer loop
      vertex -8.37922 12.834 4.05
      vertex -12.834 8.37922 12.35
      vertex -12.834 8.37922 4.05
    endloop
  endfacet
  facet normal 0.278164 -0 0.960534
    outer loop
      vertex -49.05 11 16.4
      vertex -38 9 13.2
      vertex -49.05 12 16.4
    endloop
  endfacet
  facet normal 0.278164 0 0.960534
    outer loop
      vertex -38 9 13.2
      vertex -49.05 11 16.4
      vertex -38 1 13.2
    endloop
  endfacet
  facet normal 0.262001 0.965068 2.7559e-05
    outer loop
      vertex -38 9 3.2
      vertex -49.05 12 1.90735e-07
      vertex -38.4815 9.13072 3.2
    endloop
  endfacet
  facet normal 0.262001 0.965068 -2.7559e-05
    outer loop
      vertex -38.4815 9.13072 13.2
      vertex -49.05 12 16.4
      vertex -38 9 13.2
    endloop
  endfacet
  facet normal 0.262009 0.965065 -0
    outer loop
      vertex -38.4815 9.13072 3.2
      vertex -49.05 12 16.4
      vertex -38.4815 9.13072 13.2
    endloop
  endfacet
  facet normal 0.262009 0.965065 0
    outer loop
      vertex -49.05 12 16.4
      vertex -38.4815 9.13072 3.2
      vertex -49.05 12 1.90735e-07
    endloop
  endfacet
  facet normal 0.278164 0 -0.960534
    outer loop
      vertex -49.05 11 1.90735e-07
      vertex -38 9 3.2
      vertex -38 1 3.2
    endloop
  endfacet
  facet normal 0.278164 0 -0.960534
    outer loop
      vertex -38 9 3.2
      vertex -49.05 11 1.90735e-07
      vertex -49.05 12 1.90735e-07
    endloop
  endfacet
  facet normal -1 0 0
    outer loop
      vertex -55.15 11 1.90735e-07
      vertex -55.15 19 16.4
      vertex -55.15 19 1.90735e-07
    endloop
  endfacet
  facet normal -1 -0 0
    outer loop
      vertex -55.15 19 16.4
      vertex -55.15 11 1.90735e-07
      vertex -55.15 11 16.4
    endloop
  endfacet
  facet normal 0 0 -1
    outer loop
      vertex -55.15 11 1.90735e-07
      vertex -49.05 12 1.90735e-07
      vertex -49.05 11 1.90735e-07
    endloop
  endfacet
  facet normal 0 0 -1
    outer loop
      vertex -55.15 19 1.90735e-07
      vertex -49.05 12 1.90735e-07
      vertex -55.15 11 1.90735e-07
    endloop
  endfacet
  facet normal 0 0 -1
    outer loop
      vertex -49.05 12 1.90735e-07
      vertex -55.15 19 1.90735e-07
      vertex -49.05 19 1.90735e-07
    endloop
  endfacet
  facet normal -0.526445 -0.850209 0
    outer loop
      vertex -55.15 11 16.4
      vertex -39 1 3.2
      vertex -39 1 13.2
    endloop
  endfacet
  facet normal -0.526445 -0.850209 0
    outer loop
      vertex -39 1 3.2
      vertex -55.15 11 16.4
      vertex -55.15 11 1.90735e-07
    endloop
  endfacet
  facet normal 0 -0.304776 0.952424
    outer loop
      vertex -49.05 11 16.4
      vertex -39 1 13.2
      vertex -38 1 13.2
    endloop
  endfacet
  facet normal 0 -0.304776 0.952424
    outer loop
      vertex -39 1 13.2
      vertex -49.05 11 16.4
      vertex -55.15 11 16.4
    endloop
  endfacet
  facet normal 0 -0.304776 -0.952424
    outer loop
      vertex -39 1 3.2
      vertex -49.05 11 1.90735e-07
      vertex -38 1 3.2
    endloop
  endfacet
  facet normal -0 -0.304776 -0.952424
    outer loop
      vertex -49.05 11 1.90735e-07
      vertex -39 1 3.2
      vertex -55.15 11 1.90735e-07
    endloop
  endfacet
  facet normal -0 0 1
    outer loop
      vertex -55.15 19 16.4
      vertex -49.05 12 16.4
      vertex -49.05 19 16.4
    endloop
  endfacet
  facet normal 0 0 1
    outer loop
      vertex -55.15 11 16.4
      vertex -49.05 12 16.4
      vertex -55.15 19 16.4
    endloop
  endfacet
  facet normal 0 0 1
    outer loop
      vertex -49.05 12 16.4
      vertex -55.15 11 16.4
      vertex -49.05 11 16.4
    endloop
  endfacet
  facet normal 0 1 0
    outer loop
      vertex -52.65 19 13.2
      vertex -49.05 19 16.4
      vertex -49.15 19 13.2
    endloop
  endfacet
  facet normal 0 1 0
    outer loop
      vertex -49.05 19 16.4
      vertex -49.15 19 3.2
      vertex -49.15 19 13.2
    endloop
  endfacet
  facet normal 0 1 0
    outer loop
      vertex -49.15 19 3.2
      vertex -49.05 19 1.90735e-07
      vertex -52.65 19 3.2
    endloop
  endfacet
  facet normal 0 1 -0
    outer loop
      vertex -49.05 19 1.90735e-07
      vertex -49.15 19 3.2
      vertex -49.05 19 16.4
    endloop
  endfacet
  facet normal 0 1 0
    outer loop
      vertex -49.05 19 16.4
      vertex -52.65 19 13.2
      vertex -55.15 19 16.4
    endloop
  endfacet
  facet normal 0 1 -0
    outer loop
      vertex -52.65 19 3.2
      vertex -55.15 19 16.4
      vertex -52.65 19 13.2
    endloop
  endfacet
  facet normal 0 1 0
    outer loop
      vertex -52.65 19 3.2
      vertex -55.15 19 1.90735e-07
      vertex -55.15 19 16.4
    endloop
  endfacet
  facet normal 0 1 0
    outer loop
      vertex -55.15 19 1.90735e-07
      vertex -52.65 19 3.2
      vertex -49.05 19 1.90735e-07
    endloop
  endfacet
  facet normal 1 -0 0
    outer loop
      vertex -49.05 12 16.4
      vertex -49.05 19 1.90735e-07
      vertex -49.05 19 16.4
    endloop
  endfacet
  facet normal 1 0 0
    outer loop
      vertex -49.05 19 1.90735e-07
      vertex -49.05 12 16.4
      vertex -49.05 12 1.90735e-07
    endloop
  endfacet
  facet normal 0 0 -1
    outer loop
      vertex -52.65 19 3.2
      vertex -49.15 35 3.2
      vertex -49.15 19 3.2
    endloop
  endfacet
  facet normal -0 0 -1
    outer loop
      vertex -49.15 35 3.2
      vertex -52.65 19 3.2
      vertex -52.65 35 3.2
    endloop
  endfacet
  facet normal 0 1 -0
    outer loop
      vertex -49.15 35 3.2
      vertex -52.65 35 13.2
      vertex -49.15 35 13.2
    endloop
  endfacet
  facet normal 0 1 0
    outer loop
      vertex -52.65 35 13.2
      vertex -49.15 35 3.2
      vertex -52.65 35 3.2
    endloop
  endfacet
  facet normal -0 0 1
    outer loop
      vertex -52.65 35 13.2
      vertex -49.15 19 13.2
      vertex -49.15 35 13.2
    endloop
  endfacet
  facet normal 0 0 1
    outer loop
      vertex -49.15 19 13.2
      vertex -52.65 35 13.2
      vertex -52.65 19 13.2
    endloop
  endfacet
  facet normal 1 -0 0
    outer loop
      vertex -49.15 19 13.2
      vertex -49.15 35 3.2
      vertex -49.15 35 13.2
    endloop
  endfacet
  facet normal 1 0 0
    outer loop
      vertex -49.15 35 3.2
      vertex -49.15 19 13.2
      vertex -49.15 19 3.2
    endloop
  endfacet
  facet normal -1 0 0
    outer loop
      vertex -52.65 19 3.2
      vertex -52.65 35 13.2
      vertex -52.65 35 3.2
    endloop
  endfacet
  facet normal -1 -0 0
    outer loop
      vertex -52.65 35 13.2
      vertex -52.65 19 3.2
      vertex -52.65 19 13.2
    endloop
  endfacet
endsolid OpenSCAD_Model
