solid OpenSCAD_Model
  facet normal 0 -0.707107 -0.707107
    outer loop
      vertex -17.25 -17.25 0.4
      vertex 16.85 -16.85 0
      vertex 17.25 -17.25 0.4
    endloop
  endfacet
  facet normal 1 0 0
    outer loop
      vertex 17.25 17.25 0.4
      vertex 17.25 -17.25 1
      vertex 17.25 -17.25 0.4
    endloop
  endfacet
  facet normal -1 0 0
    outer loop
      vertex -17.25 17.25 0.4
      vertex -17.25 -17.25 0.4
      vertex -17.25 17.25 1
    endloop
  endfacet
  facet normal 0.707107 0 -0.707107
    outer loop
      vertex 16.85 -16.85 0
      vertex 17.25 17.25 0.4
      vertex 17.25 -17.25 0.4
    endloop
  endfacet
  facet normal -0.707107 -0 -0.707107
    outer loop
      vertex -17.25 17.25 0.4
      vertex -16.85 -16.85 0
      vertex -17.25 -17.25 0.4
    endloop
  endfacet
  facet normal 0 0.707107 -0.707107
    outer loop
      vertex 17.25 17.25 0.4
      vertex 16.85 16.85 0
      vertex -17.25 17.25 0.4
    endloop
  endfacet
  facet normal -1 0 0
    outer loop
      vertex -17.25 -17.25 0.4
      vertex -17.25 -17.25 1
      vertex -17.25 17.25 1
    endloop
  endfacet
  facet normal 0 -1 0
    outer loop
      vertex 17.25 -17.25 0.4
      vertex -17.25 -17.25 1
      vertex -17.25 -17.25 0.4
    endloop
  endfacet
  facet normal 0 1 0
    outer loop
      vertex -17.25 17.25 1
      vertex 17.25 17.25 0.4
      vertex -17.25 17.25 0.4
    endloop
  endfacet
  facet normal 0 -0 1
    outer loop
      vertex 17.25 -17.25 1
      vertex 17.25 17.25 1
      vertex -17.25 17.25 1
    endloop
  endfacet
  facet normal 0.707107 0 -0.707107
    outer loop
      vertex 16.85 -16.85 0
      vertex 16.85 16.85 0
      vertex 17.25 17.25 0.4
    endloop
  endfacet
  facet normal 0 -0.707107 -0.707107
    outer loop
      vertex -17.25 -17.25 0.4
      vertex -16.85 -16.85 0
      vertex 16.85 -16.85 0
    endloop
  endfacet
  facet normal 0 0 1
    outer loop
      vertex -17.25 -17.25 1
      vertex 17.25 -17.25 1
      vertex -17.25 17.25 1
    endloop
  endfacet
  facet normal 0 -1 0
    outer loop
      vertex 17.25 -17.25 0.4
      vertex 17.25 -17.25 1
      vertex -17.25 -17.25 1
    endloop
  endfacet
  facet normal 0 0 -1
    outer loop
      vertex -16.85 -16.85 0
      vertex 16.85 16.85 0
      vertex 16.85 -16.85 0
    endloop
  endfacet
  facet normal 0 0.707107 -0.707107
    outer loop
      vertex 16.85 16.85 0
      vertex -16.85 16.85 0
      vertex -17.25 17.25 0.4
    endloop
  endfacet
  facet normal 1 0 -0
    outer loop
      vertex 17.25 17.25 0.4
      vertex 17.25 17.25 1
      vertex 17.25 -17.25 1
    endloop
  endfacet
  facet normal -0 1 0
    outer loop
      vertex -17.25 17.25 1
      vertex 17.25 17.25 1
      vertex 17.25 17.25 0.4
    endloop
  endfacet
  facet normal 0 0 -1
    outer loop
      vertex -16.85 -16.85 0
      vertex -16.85 16.85 0
      vertex 16.85 16.85 0
    endloop
  endfacet
  facet normal -0.707107 0 -0.707107
    outer loop
      vertex -17.25 17.25 0.4
      vertex -16.85 16.85 0
      vertex -16.85 -16.85 0
    endloop
  endfacet
endsolid OpenSCAD_Model
