solid OpenSCAD_Model
  facet normal 0 -1 0
    outer loop
      vertex 0.01 -75.99 2
      vertex 35.99 -75.99 2.6
      vertex 0.01 -75.99 2.6
    endloop
  endfacet
  facet normal 0 -1 -0
    outer loop
      vertex 35.99 -75.99 2.6
      vertex 0.01 -75.99 2
      vertex 35.99 -75.99 2
    endloop
  endfacet
  facet normal 0 1 -0
    outer loop
      vertex 35.99 -40.01 2
      vertex 0.01 -40.01 2.6
      vertex 35.99 -40.01 2.6
    endloop
  endfacet
  facet normal 0 1 0
    outer loop
      vertex 0.01 -40.01 2.6
      vertex 35.99 -40.01 2
      vertex 0.01 -40.01 2
    endloop
  endfacet
  facet normal 0 0 -1
    outer loop
      vertex 0.01 -75.99 2
      vertex 35.99 -40.01 2
      vertex 35.99 -75.99 2
    endloop
  endfacet
  facet normal -0 0 -1
    outer loop
      vertex 35.99 -40.01 2
      vertex 0.01 -75.99 2
      vertex 0.01 -40.01 2
    endloop
  endfacet
  facet normal 1 -0 0
    outer loop
      vertex 35.99 -75.99 2.6
      vertex 35.99 -40.01 2
      vertex 35.99 -40.01 2.6
    endloop
  endfacet
  facet normal 1 0 0
    outer loop
      vertex 35.99 -40.01 2
      vertex 35.99 -75.99 2.6
      vertex 35.99 -75.99 2
    endloop
  endfacet
  facet normal -0 0 1
    outer loop
      vertex 0.01 -40.01 2.6
      vertex 35.99 -75.99 2.6
      vertex 35.99 -40.01 2.6
    endloop
  endfacet
  facet normal 0 0 1
    outer loop
      vertex 35.99 -75.99 2.6
      vertex 0.01 -40.01 2.6
      vertex 0.01 -75.99 2.6
    endloop
  endfacet
  facet normal -1 0 0
    outer loop
      vertex 0.01 -75.99 2
      vertex 0.01 -40.01 2.6
      vertex 0.01 -40.01 2
    endloop
  endfacet
  facet normal -1 -0 0
    outer loop
      vertex 0.01 -40.01 2.6
      vertex 0.01 -75.99 2
      vertex 0.01 -75.99 2.6
    endloop
  endfacet
endsolid OpenSCAD_Model
